<?xml version="1.0" encoding="utf-8"?>
<!-- Generator: Adobe Illustrator 24.0.0, SVG Export Plug-In . SVG Version: 6.00 Build 0)  -->
<svg version="1.1" id="Layer_1" xmlns="http://www.w3.org/2000/svg" xmlns:xlink="http://www.w3.org/1999/xlink" x="0px" y="0px"
	 viewBox="0 0 1287.55 283.47" style="enable-background:new 0 0 1287.55 283.47;" xml:space="preserve">
<style type="text/css">
	.st0{fill:#FCFCFC;}
</style>
<title>Ativo 1logo fapesp em preto</title>
<g id="Camada_2">
	<g id="Camada_1-2">
		<path class="st0" d="M207.8,137.19c9.59-32.27,19.18-64.55,29.26-96.83C214.36,16.65,189.65,0,159.9,0
			C129.63,0,95.33,16.65,58,40.36c-9.58,32.28-19.16,64.56-28.74,96.83C19.18,169.47,9.59,201.76,0,234.53
			c36.82-23.19,71.12-38.83,100.89-38.83c30.25,0,55,15.64,77.67,38.83C188.13,201.76,198.21,169.47,207.8,137.19"/>
		<path class="st0" d="M823.13,175.53c5.26-7.33,9.19-15.53,11.6-24.22c7.06-22.69,4.54-39.84-7.05-50.94c-1-1.51-2.54-2.51-4.55-4
			c-11.1-8.07-30.76-12.61-57.5-12.61h-71.11L637,278.92v0.5h67.1l19.17-65.06h13.62c6.05,0,12.1-0.5,18.16-1
			c17.14-2.52,32.27-7.56,45.39-16.13c8.96-5.61,16.68-12.99,22.69-21.69 M772.7,147.28c-1.6,6.84-5.99,12.69-12.1,16.14
			c-1.7,1.13-3.58,1.98-5.55,2.52c-5,2-11.1,3-18.67,3L749,125.6h6.06c7.05,0.5,12.6,2,15.63,5.55c3.53,3.52,4,9.07,2,16.13"/>
		<polygon class="st0" points="486.22,179.05 491.77,159.38 446.38,159.38 454.44,131.15 506.38,131.15 520.52,83.73 402.92,83.73 
			415.11,40.86 238.07,40.86 401.14,84.88 357.6,234.54 177.04,234.54 344.49,279.42 411.07,279.42 432.76,205.78 478.15,205.78 		
			"/>
		<path class="st0" d="M1276.56,100.37c-11.1-11.09-32.28-16.64-62.53-16.64h-71.12l-39.85,136.18l-17.65,59.51h67.07l19.18-65.06
			h13.62c6,0,12.1-0.5,18.15-1c17.16-2.52,32.28-7.56,45.39-16.13c17.65-11.11,29.26-26.24,34.81-45.91
			c7-22.69,4.53-39.84-7.07-50.94 M1221.08,147.29c-2.53,7.57-6,12.61-12.1,16.14c-1.7,1.13-3.58,1.98-5.55,2.52
			c-5,2-11.1,3-18.67,3l12.62-43.37h6c7.06,0.5,12.61,2,15.63,5.55c3.54,3.52,4,9.07,2,16.13"/>
		<path class="st0" d="M1091,190.16c-3.54-8.58-13.62-19.18-29.75-32.29c0-0.5-0.52-0.5-1.53-1.51
			c-9.07-7.06-13.1-13.11-11.59-18.16c1.13-3.67,3.66-6.75,7.05-8.57c4-2.29,8.52-3.5,13.12-3.53c6.06,0,11.6,1.52,18.16,4
			c5.8,2.72,11.37,5.92,16.64,9.57c0.6,0.93,1.49,1.63,2.53,2l14.61-50.44c-5.54-2.62-11.27-4.81-17.14-6.56c-3-0.5-5.55-1.5-8.07-2
			c-8.43-1.99-17.06-3-25.72-3c-21.69,0-40.86,5.55-57.51,16.15c-17.17,10.6-27.8,24.23-32.8,40.87
			c-2.52,9.58-2.52,18.66,0.51,26.73c3.53,8.58,13.12,20.18,28.76,35.3c-0.01,0.27,0.2,0.5,0.47,0.51c0.01,0,0.01,0,0.02,0
			c8.58,9.08,12.62,15.64,11.09,20.17c-1.11,4.37-4.05,8.05-8.07,10.1c-4.22,2.67-9.12,4.06-14.11,4c-6,0-12.61-2-19.67-5
			c-5.43-2.65-10.65-5.68-15.64-9.09c-2.39-1.37-4.6-3.06-6.56-5l-16.13,54c7.15,4.35,14.76,7.9,22.69,10.59c0.5,0.5,1.52,0.5,2,1
			c8.74,2.2,17.71,3.39,26.73,3.54c24.72,0,45.91-6.07,64.06-17.66s30.27-26.74,35.82-45.9c3.53-11.6,3-21.19,0-29.75"/>
		<polygon class="st0" points="890.22,228.99 898.28,201.76 944.68,201.76 958.31,156.36 911.39,156.36 918.96,131.15 
			970.41,131.15 984.52,83.73 865.5,83.73 823.13,227.48 808.5,279.42 927.03,279.42 942.16,228.99 		"/>
		<path class="st0" d="M637,83.73h-75.13L486.22,218.4l-34.3,61H517l13.62-28.74h39.85l-3.53,28.74H632l5-192.16V83.73z
			 M575.5,211.33h-26.74L565.91,175l17.14-36.31L575.5,211.33z"/>
	</g>
</g>
</svg>
